<svg xmlns="http://www.w3.org/2000/svg" width="324" height="84" viewBox="0 0 324 84"><style>.st0{fill:#fff}.st0,.st2{fill-rule:evenodd;clip-rule:evenodd}.st2,.st3{fill:#2e2e2e}</style><path class="st0" d="M301.9 57.2c-1.9 0-3.6-.5-5.2-1.4-1.5-.9-2.8-2.3-3.6-3.9-.8-1.6-1.3-3.5-1.3-5.5v-.8c0-2 .4-3.9 1.2-5.6.8-1.7 2-3.1 3.5-4.1 1.5-1 3.2-1.5 4.9-1.5 2.8 0 5 1 6.6 2.9 1.6 1.8 2.4 4.4 2.4 7.4v2.7H297c.2 1.3.6 2.4 1.4 3.3.9 1.1 2.1 1.6 3.5 1.6.9 0 1.7-.2 2.3-.5.6-.3 1.3-.8 1.8-1.5l.9-1.2 3.6 2.8-.8 1.2c-1.7 2.7-4.4 4.1-7.8 4.1zm3.4-14.5c-.2-.9-.5-1.6-1.1-2.2-.7-.8-1.6-1.2-2.7-1.2-1.2 0-2.1.4-2.9 1.3-.5.6-.9 1.3-1.2 2.2h7.9zm-29.5 14.1v-30h5.1v15l7.1-7h6.9l-9.7 9.6 9.9 12.4h-6.3l-7.1-8.9-.8.7v8.1h-5.1zm-7.6 0v-14c0-1.3-.3-2.3-.7-2.8-.4-.5-1.2-.7-2.3-.7-1 0-1.8.3-2.5.9-.7.6-1.3 1.4-1.7 2.4v14.3h-5v-22h5.4l-.2 1c.1-.1.2-.1.3-.2 1.3-.7 2.7-1.1 4.3-1.1 2.5 0 4.4.8 5.7 2.2 1.2 1.4 1.9 3.5 1.9 6.1v14h-5.2zm-20 0v-22h5.1v22h-5.1zm-14.9 0V33.1h-8.8v-4.8h22.7v4.9h-8.8v23.7h-5.1zm78.3 0v-22h5v.7c1.1-.7 2.4-1 3.9-1 .8 0 1.5.1 2 .4l.9.4-.1 4.7-1.7-.3c-.4-.1-.7-.1-1.2-.1-1 0-1.8.3-2.4.8-.6.5-1.1 1.2-1.4 2.2v14.3h-5zm-60.9-23.1c-1.1 0-1.8-.5-2.1-.9-.5-.6-.8-1.3-.8-2 0-.8.3-1.5.8-2 .4-.4 1.1-.9 2.1-.9.9 0 1.6.3 2.1.9.5.6.8 1.3.8 2 0 .8-.3 1.5-.8 2.1-.3.3-1 .8-2.1.8zM207.8 26.3v13.9c-.5-1.2-1.1-2.3-1.9-3.2-1.9-2.1-4.4-3.1-7.6-3.1-2.1 0-4 .5-5.7 1.5-1.3.8-2.3 1.8-3.1 3l1.4-4.2h-9.6l-2 7.3-2-7.3h-9.6l.9 2.7c-.3-.3-.5-.6-.8-.8-1.7-1.5-4.1-2.2-6.9-2.2-1.8 0-3.5.3-5 1-1 .4-1.9 1-2.6 1.7v-1.9l-1.4-.4c-.7-.2-1.4-.3-2.2-.3-.7 0-1.6.1-2.5.5v-.1h-8.7v7c-.3-2.1-1.2-3.8-2.7-5.1-1.7-1.5-4.1-2.2-6.9-2.2-1.8 0-3.5.3-5 1-1.6.7-2.8 1.6-3.7 2.9-.9 1.3-1.4 2.7-1.4 4.2v2h2.3c-1.5 1.3-2.4 3-2.6 5.1h-9.2V27.7H100v29.6h20.5v-2.2l.4.4c1.6 1.4 3.6 2.1 6 2.1 1.4 0 2.7-.3 3.8-.8l.3.5h16.6V43.4c.2-.2.7-.5 1.8-.5.4 0 .9 0 1.4.1v1h2.3c-1.8 1.4-2.7 3.5-2.7 6 0 2.2.9 4.1 2.5 5.6 1.6 1.4 3.6 2.1 6 2.1 1.4 0 2.7-.3 3.8-.8l.2.5h8.4v-2.8l-.2-.4c-.2-.4-.5-1.2-.5-3.2v-8.1l4.9 14.5h7.7l4.4-12.9c0 .5-.1.9-.1 1.4v.5c0 3.4 1.1 6.2 3.2 8.3 2.1 2.1 4.9 3.1 8.2 3.1 1.9 0 3.6-.4 5.2-1.1a9 9 0 0 0 3.8-3.1v3.8h9.1v-31h-9.2z"/><circle class="st0" cx="42" cy="42" r="42"/><linearGradient id="SVGID_1_" gradientUnits="userSpaceOnUse" x1="24.225" y1="320.012" x2="24.225" y2="319.012" gradientTransform="matrix(80 0 0 -80 -1896 25603)"><stop offset="0" stop-color="#f08346"/><stop offset="1" stop-color="#e96969"/></linearGradient><circle cx="42" cy="42" r="40" fill-rule="evenodd" clip-rule="evenodd" fill="url(#SVGID_1_)"/><path class="st0" d="M18 42c0 1 .1 2 .2 3l-7.7 6.4 7.7 13.3 9.4-3.5c1.6 1.2 3.3 2.2 5.1 3l1.6 9.9h15.4l1.6-9.9c1.8-.8 3.6-1.8 5.1-3l9.4 3.5 7.7-13.3-7.7-6.4c.1-1 .2-2 .2-3s-.1-2-.2-3l7.7-6.4-7.7-13.3-9.4 3.5c-1.6-1.2-3.3-2.2-5.1-3L49.7 10H34.3l-1.6 9.9c-1.8.8-3.6 1.8-5.1 3l-9.4-3.5-7.7 13.3 7.7 6.4c-.1.9-.2 1.9-.2 2.9zm-2.4-10.3 4.3-7.5 8.4 3.1.9-.8c1.8-1.5 3.8-2.7 6-3.4l1.1-.4 1.5-8.8h8.6l1.5 8.8 1.1.4c2.2.8 4.2 2 6 3.4l.9.8 8.4-3.1 4.3 7.5-6.9 5.7.2 1.1c.2 1.1.3 2.3.3 3.4s-.1 2.3-.3 3.4l-.2 1.1 6.9 5.7-4.3 7.5-8.4-3.1-.9.8c-1.8 1.5-3.8 2.7-6 3.4l-1.1.4-1.6 8.9h-8.6l-1.5-8.8-1.1-.4c-2.2-.8-4.2-2-6-3.4l-.9-.8-8.4 3.1-4.3-7.5 6.9-5.7-.2-1.1c-.1-1.1-.2-2.2-.2-3.4s.1-2.3.3-3.4l.2-1.1-6.9-5.8zM42 52c5.5 0 10-4.5 10-10s-4.5-10-10-10-10 4.5-10 10 4.5 10 10 10zm0-4c-3.3 0-6-2.7-6-6s2.7-6 6-6 6 2.7 6 6-2.7 6-6 6z"/><path class="st2" d="M107.3 51.1h11.2v4.2H102V29.7h5.3zM151.1 41.1c-.7-.1-1.3-.1-1.8-.1-1.9 0-3.2.7-3.8 2v12.4h-5.1v-19h4.8l.1 2.3c1-1.7 2.4-2.6 4.2-2.6.6 0 1.1.1 1.6.2v4.8zM179.2 49.1l3.6-12.8h5.3l-6.5 19h-4.8l-6.4-19h5.3l3.5 12.8z"/><path class="st3" d="M206.6 45.4c0-3-.7-5.3-2.2-7-1.5-1.6-3.5-2.5-6.1-2.5-1.7 0-3.3.4-4.6 1.2-1.4.8-2.4 2-3.1 3.5-.7 1.5-1.1 3.2-1.1 5.1v.5c0 2.8.9 5.1 2.6 6.8 1.7 1.7 4 2.6 6.8 2.6 1.6 0 3-.3 4.3-.9 1.3-.6 2.3-1.4 3.1-2.5l-2.5-2.8c-1.1 1.4-2.6 2.1-4.6 2.1-1.3 0-2.3-.4-3.1-1.1-.8-.8-1.3-1.7-1.5-3h12.1v-2zm-4.9-1.4h-7.1c.2-1.3.6-2.2 1.2-2.9.6-.7 1.4-1 2.5-1s1.9.3 2.5.9c.6.6.9 1.5.9 2.6v.4z"/><path class="st2" d="M214.9 55.3h-5.1v-27h5.1v27z"/><path class="st3" d="M169.2 55c-.5-.9-.7-2.3-.8-4.1v-8.2c0-2.1-.7-3.8-2.1-5-1.4-1.2-3.2-1.8-5.6-1.8-1.5 0-2.9.3-4.2.8-1.2.5-2.2 1.3-2.9 2.2-.7.9-1 2-1 3.1h5.1c0-.7.2-1.3.7-1.7.5-.4 1.2-.6 2-.6 1 0 1.7.3 2.1.8.5.5.7 1.2.7 2.1v1.1H161c-2.8 0-5 .6-6.5 1.6s-2.2 2.6-2.2 4.6c0 1.6.6 3 1.8 4.1 1.2 1.1 2.8 1.6 4.6 1.6 2 0 3.6-.7 4.8-2.1.1.7.3 1.2.5 1.7h5.1V55zm-5.8-5.1c-.3.6-.8 1-1.4 1.3-.6.3-1.3.5-2.1.5s-1.4-.2-1.8-.6c-.4-.4-.7-.9-.7-1.6v-.3c.2-1.8 1.5-2.6 4.1-2.6h1.9v3.3zM137.3 55c-.5-.9-.7-2.3-.8-4.1v-8.2c0-2.1-.7-3.8-2.1-5-1.4-1.2-3.2-1.8-5.6-1.8-1.5 0-2.9.3-4.2.8-1.2.5-2.2 1.3-2.9 2.2-.7.9-1 2-1 3.1h5.1c0-.7.2-1.3.7-1.7.5-.4 1.2-.6 2-.6 1 0 1.7.3 2.1.8.5.5.7 1.2.7 2.1v1.1H129c-2.8 0-5 .6-6.5 1.6-1.5 1.1-2.2 2.6-2.2 4.6 0 1.6.6 3 1.8 4.1 1.2 1.1 2.8 1.6 4.6 1.6 2 0 3.6-.7 4.8-2.1.1.7.3 1.2.5 1.7h5.1V55zm-5.8-5.1c-.3.6-.8 1-1.4 1.3-.6.3-1.3.5-2.1.5s-1.4-.2-1.8-.6c-.4-.4-.7-.9-.7-1.6v-.3c.2-1.8 1.5-2.6 4.1-2.6h1.9v3.3z"/><path class="st2" d="M245.8 31.6H237v23.7h-2.2V31.6H226v-1.8h19.7l.1 1.8zm6 23.7h-2.1v-19h2.1v19zm-2.5-24.5c0-.4.1-.7.4-1s.6-.4 1.1-.4c.4 0 .8.1 1.1.4.3.3.4.6.4 1s-.1.7-.4 1c-.3.3-.6.4-1.1.4-.4 0-.8-.1-1.1-.4-.3-.3-.4-.6-.4-1zm10.2 5.5.1 3.3c.7-1.2 1.6-2.1 2.7-2.7 1.1-.6 2.2-.9 3.5-.9 2 0 3.6.6 4.6 1.7 1 1.1 1.5 2.9 1.5 5.2v12.5h-2.1V42.8c0-1.7-.4-3-1.1-3.8-.7-.8-1.8-1.2-3.4-1.2-1.3 0-2.5.4-3.5 1.2-1 .8-1.7 1.9-2.2 3.3v13h-2.1v-19h2zm22.3 9.4-2.4 2.3v7.3h-2.1v-27h2.1v17.3l2-2.1 7.3-7.2h2.7l-8.1 8 8.8 11h-2.5l-7.8-9.6zm20.1 10c-1.6 0-3.1-.4-4.4-1.2-1.3-.8-2.3-1.9-3-3.3-.7-1.4-1.1-3-1.1-4.8v-.8c0-1.8.4-3.5 1.1-4.9.7-1.5 1.7-2.6 3-3.5 1.3-.8 2.6-1.3 4.1-1.3 2.3 0 4.1.8 5.5 2.4 1.4 1.6 2 3.7 2 6.5V46h-13.6v.4c0 2.2.6 4 1.9 5.4 1.2 1.4 2.8 2.2 4.7 2.2 1.1 0 2.1-.2 3-.6.9-.4 1.6-1.1 2.3-2l1.3 1c-1.6 2.2-3.9 3.3-6.8 3.3zm-.4-18c-1.6 0-2.9.6-4 1.7-1.1 1.2-1.7 2.7-2 4.7h11.4v-.2c-.1-1.8-.6-3.3-1.6-4.5-.9-1.1-2.2-1.7-3.8-1.7zm20.4.4c-.4-.1-.9-.1-1.4-.1-1.3 0-2.4.4-3.3 1.1-.9.7-1.6 1.8-1.9 3.2v13.1h-2.1v-19h2.1v3c1.1-2.2 2.9-3.4 5.4-3.4.6 0 1 .1 1.4.2l-.2 1.9z"/></svg>