<svg xmlns="http://www.w3.org/2000/svg" width="332" height="80" viewBox="0 0 332 80"><defs><linearGradient id="a" x1="50%" x2="50%" y1="0%" y2="100%"><stop stop-color="#F08346" offset="0%"/><stop stop-color="#E96969" offset="100%"/></linearGradient></defs><g fill="none" fill-rule="evenodd"><path fill="#2E2E2E" d="M105.273 49.088h11.198v4.236H100V27.73h5.273v21.358zm24.91 4.236c-.236-.457-.406-1.025-.51-1.705-1.232 1.37-2.83 2.056-4.8 2.056-1.863 0-3.407-.54-4.632-1.617-1.223-1.08-1.836-2.44-1.836-4.08 0-2.015.747-3.562 2.242-4.64 1.494-1.078 3.653-1.623 6.477-1.635h2.338v-1.09c0-.88-.225-1.582-.676-2.11-.45-.526-1.163-.79-2.136-.79-.855 0-1.526.205-2.012.615-.487.41-.73.973-.73 1.688h-5.08c0-1.102.34-2.122 1.02-3.06.68-.937 1.64-1.672 2.883-2.205 1.24-.533 2.635-.8 4.182-.8 2.344 0 4.204.59 5.58 1.767 1.378 1.177 2.067 2.833 2.067 4.966v8.244c.01 1.804.262 3.17.754 4.095v.3h-5.132zm-4.203-3.533c.75 0 1.442-.166 2.075-.5.633-.334 1.1-.782 1.406-1.345v-3.27h-1.898c-2.542 0-3.896.88-4.06 2.638l-.018.298c0 .634.223 1.156.668 1.566.446.41 1.055.615 1.828.615zm23.168-10.722c-.69-.093-1.3-.14-1.828-.14-1.922 0-3.18.65-3.78 1.95v12.446h-5.08v-19.02h4.8l.14 2.268c1.02-1.746 2.432-2.62 4.237-2.62.562 0 1.09.077 1.582.23l-.072 4.886zm12.938 14.256c-.234-.457-.404-1.025-.51-1.705-1.23 1.37-2.83 2.056-4.8 2.056-1.862 0-3.406-.54-4.63-1.617-1.225-1.08-1.837-2.44-1.837-4.08 0-2.015.746-3.562 2.24-4.64 1.494-1.078 3.653-1.623 6.477-1.635h2.338v-1.09c0-.88-.225-1.582-.677-2.11-.45-.526-1.163-.79-2.135-.79-.856 0-1.527.205-2.013.615-.486.41-.73.973-.73 1.688h-5.08c0-1.102.34-2.122 1.02-3.06.68-.937 1.64-1.672 2.883-2.205 1.242-.533 2.637-.8 4.183-.8 2.344 0 4.205.59 5.58 1.767 1.378 1.177 2.067 2.833 2.067 4.966v8.244c.012 1.804.264 3.17.756 4.095v.3h-5.134zm-4.2-3.533c.75 0 1.44-.166 2.073-.5.632-.334 1.1-.782 1.405-1.345v-3.27h-1.898c-2.543 0-3.897.88-4.06 2.638l-.018.298c0 .634.22 1.156.667 1.566.445.41 1.054.615 1.828.615zm19.335-2.67l3.534-12.815h5.31l-6.418 19.02h-4.85l-6.417-19.02h5.308l3.533 12.814zm19.6 6.556c-2.79 0-5.06-.856-6.81-2.567-1.753-1.712-2.63-3.99-2.63-6.84v-.49c0-1.91.37-3.62 1.108-5.125.74-1.506 1.784-2.666 3.138-3.48 1.353-.815 2.897-1.222 4.632-1.222 2.6 0 4.65.82 6.143 2.46 1.496 1.642 2.243 3.968 2.243 6.98v2.074H192.53c.165 1.242.66 2.238 1.487 2.988.826.75 1.872 1.125 3.137 1.125 1.957 0 3.487-.71 4.588-2.127l2.496 2.795c-.76 1.078-1.793 1.92-3.093 2.523-1.3.604-2.743.906-4.325.906zm-.58-15.61c-1.008 0-1.825.34-2.452 1.02-.627.68-1.028 1.652-1.204 2.918h7.066V41.6c-.023-1.125-.328-1.996-.914-2.61-.586-.616-1.418-.924-2.496-.924zm16.647 15.258h-5.098v-27h5.097v27zm30.884-23.748H235v23.748h-2.162V29.576h-8.754V27.73h19.687v1.846zm5.996 23.748h-2.11v-19.02h2.11v19.02zm-2.48-24.52c0-.4.13-.737.388-1.012s.61-.413 1.055-.413c.444 0 .798.137 1.062.412.264.275.395.612.395 1.01 0 .4-.13.733-.395 1.003-.264.27-.618.404-1.063.404-.447 0-.798-.136-1.056-.405-.258-.27-.387-.604-.387-1.002zm10.196 5.5l.07 3.253c.716-1.172 1.606-2.066 2.673-2.68 1.066-.616 2.244-.924 3.533-.924 2.04 0 3.556.574 4.553 1.723.997 1.148 1.5 2.87 1.512 5.168v12.48h-2.092V40.826c-.01-1.7-.372-2.965-1.08-3.797-.71-.833-1.843-1.25-3.402-1.25-1.3 0-2.452.408-3.454 1.223-1.002.814-1.743 1.913-2.224 3.296v13.024h-2.09v-19.02h2.002zm22.29 9.44l-2.41 2.32v7.26h-2.108v-27h2.11v17.28l1.986-2.145 7.277-7.155h2.654l-8.067 8.015 8.77 11.004h-2.512l-7.7-9.58zm20.126 9.932c-1.617 0-3.08-.4-4.385-1.196-1.307-.796-2.324-1.907-3.05-3.33-.727-1.424-1.09-3.02-1.09-4.79v-.756c0-1.83.355-3.475 1.064-4.94.71-1.465 1.696-2.616 2.96-3.454 1.267-.838 2.638-1.257 4.115-1.257 2.308 0 4.14.788 5.493 2.364 1.353 1.577 2.03 3.73 2.03 6.46v1.178h-13.57v.404c0 2.156.618 3.952 1.854 5.387 1.236 1.436 2.79 2.153 4.666 2.153 1.125 0 2.118-.205 2.98-.615.86-.41 1.643-1.066 2.346-1.97l1.32 1.003c-1.548 2.24-3.792 3.358-6.734 3.358zm-.386-17.93c-1.582 0-2.915.58-4 1.74-1.083 1.16-1.742 2.72-1.977 4.676h11.408v-.228c-.058-1.83-.58-3.317-1.564-4.465-.985-1.15-2.275-1.724-3.868-1.724zm20.408.352c-.445-.082-.92-.123-1.424-.123-1.312 0-2.423.366-3.33 1.098-.91.733-1.557 1.796-1.943 3.19v13.06h-2.092V34.306h2.058l.035 3.023c1.113-2.25 2.9-3.375 5.36-3.375.587 0 1.05.076 1.39.23l-.053 1.915z"/><circle cx="40" cy="40" r="40" fill="url(#a)"/><path fill="#FFF" d="M16 40c0 .996.06 1.986.18 2.964l-7.74 6.373 7.694 13.326 9.39-3.518c1.582 1.197 3.306 2.195 5.134 2.968L32.306 72h15.388l1.648-9.887c1.828-.773 3.552-1.77 5.133-2.968l9.39 3.518 7.695-13.326-7.74-6.373c.12-.978.18-1.968.18-2.964s-.06-1.986-.18-2.964l7.74-6.373-7.694-13.326-9.39 3.518c-1.582-1.197-3.306-2.195-5.134-2.968L47.694 8H32.306l-1.648 9.887c-1.828.773-3.552 1.77-5.133 2.968l-9.39-3.518L8.44 30.663l7.74 6.373c-.12.978-.18 1.968-.18 2.964zm-2.402-10.27l4.306-7.46 8.37 3.137.894-.75c1.773-1.483 3.79-2.652 5.964-3.447l1.094-.4L35.694 12h8.612l1.468 8.81 1.094.4c2.174.795 4.19 1.964 5.964 3.448l.894.75 8.37-3.137 4.306 7.46-6.897 5.676.2 1.147C59.9 37.683 60 38.835 60 40s-.1 2.317-.296 3.447l-.2 1.147 6.898 5.677-4.306 7.46-8.37-3.137-.894.75c-1.773 1.483-3.79 2.652-5.964 3.447l-1.094.4L44.306 68h-8.612l-1.468-8.81-1.094-.4c-2.174-.795-4.19-1.964-5.964-3.448l-.894-.75-8.37 3.137-4.306-7.46 6.897-5.676-.2-1.147C20.1 42.317 20 41.165 20 40s.1-2.317.296-3.447l.2-1.147-6.898-5.677zM40 50c5.523 0 10-4.477 10-10s-4.477-10-10-10-10 4.477-10 10 4.477 10 10 10zm0-4c-3.314 0-6-2.686-6-6s2.686-6 6-6 6 2.686 6 6-2.686 6-6 6z"/></g></svg>
