<svg viewBox="0 0 321 80" fill="none" xmlns="http://www.w3.org/2000/svg">
    <style>
        #tinker { fill: #2e2e2e } @media (prefers-color-scheme:dark) { #tinker { fill: #fff } }
    </style>
    <path d="M40 80C62.0914 80 80 62.0914 80 40C80 17.9086 62.0914 0 40 0C17.9086 0 0 17.9086 0 40C0 62.0914 17.9086 80 40 80Z" fill="url(#gradient)"/>
    <path fill-rule="evenodd" clip-rule="evenodd" d="M16 40C16 41 16.1 42 16.2 43L8.5 49.4L16.2 62.7L25.6 59.2C27.2 60.4 28.9 61.4 30.7 62.2L32.3 72.1H47.7L49.3 62.2C51.1 61.4 52.9 60.4 54.4 59.2L63.8 62.7L71.5 49.4L63.8 43C63.9 42 64 41 64 40C64 39 63.9 38 63.8 37L71.5 30.6L63.8 17.3L54.4 20.8C52.8 19.6 51.1 18.6 49.3 17.8L47.7 8H32.3L30.7 17.9C28.9 18.7 27.1 19.7 25.6 20.9L16.2 17.4L8.5 30.7L16.2 37.1C16.1 38 16 39 16 40ZM13.6 29.7L17.9 22.2L26.3 25.3L27.2 24.5C29 23 31 21.8 33.2 21.1L34.3 20.7L35.8 11.9H44.4L45.9 20.7L47 21.1C49.2 21.9 51.2 23.1 53 24.5L53.9 25.3L62.3 22.2L66.6 29.7L59.7 35.4L59.9 36.5C60.1 37.6 60.2 38.8 60.2 39.9C60.2 41 60.1 42.2 59.9 43.3L59.7 44.4L66.6 50.1L62.3 57.6L53.9 54.5L53 55.3C51.2 56.8 49.2 58 47 58.7L45.9 59.1L44.3 68H35.7L34.2 59.2L33.1 58.8C30.9 58 28.9 56.8 27.1 55.4L26.2 54.6L17.8 57.7L13.5 50.2L20.4 44.5L20.2 43.4C20.1 42.3 20 41.2 20 40C20 38.8 20.1 37.7 20.3 36.6L20.5 35.5L13.6 29.7ZM40 50C45.5 50 50 45.5 50 40C50 34.5 45.5 30 40 30C34.5 30 30 34.5 30 40C30 45.5 34.5 50 40 50ZM40 46C36.7 46 34 43.3 34 40C34 36.7 36.7 34 40 34C43.3 34 46 36.7 46 40C46 43.3 43.3 46 40 46Z" fill="white"/>
    <path id="tinker" d="M212.9 53.3H207.8V26.3H212.9V53.3Z"/>
    <path id="tinker" d="M116.5 49.0999H105.3V27.7H100V53.2999H116.5V49.0999Z"/>
    <path id="tinker" d="M147.3 39C147.8 39 148.4 39 149.1 39.0999V34.2999C148.6 34.2 148.1 34.0999 147.5 34.0999C145.7 34.0999 144.3 35 143.3 36.7L143.2 34.4H138.4V53.4H143.5V41C144.1 39.7 145.4 39 147.3 39Z"/>
    <path id="tinker" d="M180.8 34.2999L177.2 47.0999L173.7 34.2999H168.4L174.8 53.2999H179.6L186.1 34.2999H180.8Z"/>
    <path id="tinker" fill-rule="evenodd" clip-rule="evenodd" d="M202.4 36.4C203.9 38.1 204.6 40.4 204.6 43.4H204.7V45.4H192.6C192.8 46.7 193.3 47.6 194.1 48.4C194.9 49.1 195.9 49.5 197.2 49.5C199.2 49.5 200.7 48.8 201.8 47.4L204.3 50.2C203.5 51.3 202.5 52.1 201.2 52.7C199.9 53.3 198.5 53.6 196.9 53.6C194.1 53.6 191.8 52.7 190.1 51C188.4 49.3 187.5 47 187.5 44.2V43.7C187.5 41.8 187.9 40.1 188.6 38.6C189.3 37.1 190.3 35.9 191.7 35.1C193 34.3 194.6 33.9 196.3 33.9C198.9 33.9 200.9 34.8 202.4 36.4ZM192.6 42H199.7V41.6C199.7 40.5 199.4 39.6 198.8 39C198.2 38.4 197.4 38.1 196.3 38.1C195.2 38.1 194.4 38.4 193.8 39.1C193.2 39.8 192.8 40.7 192.6 42Z"/>
    <path id="tinker" fill-rule="evenodd" clip-rule="evenodd" d="M166.4 48.9C166.5 50.7 166.7 52.1 167.2 53H167.1V53.2H162C161.8 52.7 161.6 52.2 161.5 51.5C160.3 52.9 158.7 53.6 156.7 53.6C154.9 53.6 153.3 53.1 152.1 52C150.9 50.9 150.3 49.5 150.3 47.9C150.3 45.9 151 44.3 152.5 43.3C154 42.3 156.2 41.7 159 41.7H161.2V40.6C161.2 39.7 161 39 160.5 38.5C160.1 38 159.4 37.7 158.4 37.7C157.6 37.7 156.9 37.9 156.4 38.3C155.9 38.7 155.7 39.3 155.7 40H150.6C150.6 38.9 150.9 37.8 151.6 36.9C152.3 36 153.3 35.2 154.5 34.7C155.8 34.2 157.2 33.9 158.7 33.9C161.1 33.9 162.9 34.5 164.3 35.7C165.7 36.9 166.4 38.6 166.4 40.7V48.9ZM160 49.2C160.6 48.9 161.1 48.5 161.4 47.9V44.6H159.5C156.9 44.6 155.6 45.4 155.4 47.2V47.5C155.4 48.2 155.7 48.7 156.1 49.1C156.5 49.5 157.1 49.7 157.9 49.7C158.7 49.7 159.4 49.5 160 49.2Z"/>
    <path id="tinker" fill-rule="evenodd" clip-rule="evenodd" d="M134.5 48.9C134.6 50.7 134.8 52.1 135.3 53H135.1V53.2H130C129.8 52.7 129.6 52.2 129.5 51.5C128.3 52.9 126.7 53.6 124.7 53.6C122.9 53.6 121.3 53.1 120.1 52C118.9 50.9 118.3 49.5 118.3 47.9C118.3 45.9 119 44.4 120.5 43.3C122 42.3 124.2 41.7 127 41.7H129.3V40.6C129.3 39.7 129.1 39 128.6 38.5C128.2 38 127.5 37.7 126.5 37.7C125.7 37.7 125 37.9 124.5 38.3C124 38.7 123.8 39.3 123.8 40H118.7C118.7 38.9 119 37.8 119.7 36.9C120.4 36 121.4 35.2 122.6 34.7C123.9 34.2 125.3 33.9 126.8 33.9C129.2 33.9 131 34.5 132.4 35.7C133.8 36.9 134.5 38.6 134.5 40.7V48.9ZM128.1 49.2C128.7 48.9 129.2 48.5 129.5 47.9V44.6H127.6C125 44.6 123.7 45.4 123.5 47.2V47.5C123.5 48.2 123.8 48.7 124.2 49.1C124.6 49.5 125.2 49.7 126 49.7C126.8 49.7 127.5 49.5 128.1 49.2Z"/>
    <path id="tinker" fill-rule="evenodd" clip-rule="evenodd" d="M243.8 29.6H235V53.3H232.8V29.6H224V27.8H243.7L243.8 29.6ZM249.8 53.3H247.7V34.3H249.8V53.3ZM247.3 28.8C247.3 28.4 247.4 28.1 247.7 27.8C248 27.5 248.3 27.4 248.8 27.4C249.2 27.4 249.6 27.5 249.9 27.8C250.2 28.1 250.3 28.4 250.3 28.8C250.3 29.2 250.2 29.5 249.9 29.8C249.6 30.1 249.3 30.2001 248.8 30.2001C248.4 30.2001 248 30.1 247.7 29.8C247.4 29.5 247.3 29.2 247.3 28.8ZM257.5 34.3L257.6 37.6C258.3 36.4 259.2 35.5001 260.3 34.9001C261.4 34.3001 262.5 34 263.8 34C265.8 34 267.4 34.6001 268.4 35.7001C269.4 36.8001 269.9 38.6001 269.9 40.9001V53.4001H267.8V40.8C267.8 39.1 267.4 37.8 266.7 37C266 36.2 264.9 35.8 263.3 35.8C262 35.8 260.8 36.2 259.8 37C258.8 37.8 258.1 38.9 257.6 40.3V53.3H255.5V34.3H257.5ZM279.8 43.7001L277.4 46V53.3H275.3V26.3H277.4V43.6L279.4 41.5L286.7 34.3H289.4L281.3 42.3L290.1 53.3H287.6L279.8 43.7001ZM299.9 53.7001C298.3 53.7001 296.8 53.3 295.5 52.5C294.2 51.7 293.2 50.6001 292.5 49.2001C291.8 47.8001 291.4 46.2001 291.4 44.4001V43.6C291.4 41.8 291.8 40.1001 292.5 38.7001C293.2 37.2001 294.2 36.1001 295.5 35.2001C296.8 34.4001 298.1 33.9001 299.6 33.9001C301.9 33.9001 303.7 34.7 305.1 36.3C306.5 37.9 307.1 40 307.1 42.8V44H293.5V44.4001C293.5 46.6001 294.1 48.4 295.4 49.8C296.6 51.2 298.2 52 300.1 52C301.2 52 302.2 51.8001 303.1 51.4001C304 51.0001 304.7 50.3001 305.4 49.4001L306.7 50.4001C305.1 52.6001 302.8 53.7001 299.9 53.7001ZM299.5 35.7001C297.9 35.7001 296.6 36.3001 295.5 37.4001C294.4 38.6001 293.8 40.1 293.5 42.1H304.9V41.9001C304.8 40.1001 304.3 38.6001 303.3 37.4001C302.4 36.3001 301.1 35.7001 299.5 35.7001ZM319.9 36.1C319.5 36 319 36 318.5 36C317.2 36 316.1 36.4 315.2 37.1C314.3 37.8 313.6 38.9 313.3 40.3V53.4001H311.2V34.4001H313.3V37.4001C314.4 35.2001 316.2 34 318.7 34C319.3 34 319.7 34.1001 320.1 34.2001L319.9 36.1Z"/>
    <defs>
        <linearGradient id="gradient" x1="40" y1="0.04" x2="40" y2="80.04" gradientUnits="userSpaceOnUse">
            <stop stop-color="#F08346"/>
            <stop offset="1" stop-color="#E96969"/>
        </linearGradient>
    </defs>
</svg>
